<mxfile host="Electron" agent="Mozilla/5.0 (Windows NT 10.0; Win64; x64) AppleWebKit/537.36 (KHTML, like Gecko) draw.io/21.2.8 Chrome/112.0.5615.165 Electron/24.2.0 Safari/537.36" modified="2025-10-01T18:05:32.644Z" version="21.2.8" etag="aKtq3q3ogUX4KqgaFz3y" type="device">
  <diagram name="Página-1" id="OckT843x-lJwrtBGM3gO">
    <mxGraphModel dx="8350" dy="4545" grid="1" gridSize="10" guides="1" tooltips="1" connect="1" arrows="1" fold="1" page="1" pageScale="1" pageWidth="827" pageHeight="1169" math="0" shadow="0">
      <root>
        <mxCell id="0" />
        <mxCell id="1" parent="0" />
        <mxCell id="jSK1wQsOqo6iw2RfOeqB-2" value="Usuario" style="shape=umlActor;verticalLabelPosition=bottom;verticalAlign=top;html=1;outlineConnect=0;" parent="1" vertex="1">
          <mxGeometry x="-890" y="-130" width="30" height="60" as="geometry" />
        </mxCell>
        <mxCell id="jSK1wQsOqo6iw2RfOeqB-3" style="edgeStyle=orthogonalEdgeStyle;rounded=0;orthogonalLoop=1;jettySize=auto;html=1;exitX=0.5;exitY=1;exitDx=0;exitDy=0;" parent="1" source="jSK1wQsOqo6iw2RfOeqB-4" target="jSK1wQsOqo6iw2RfOeqB-5" edge="1">
          <mxGeometry relative="1" as="geometry" />
        </mxCell>
        <mxCell id="T_bKocLDF5SG0f0tNBpL-326" value="&amp;lt;Use&amp;gt;" style="edgeLabel;html=1;align=center;verticalAlign=middle;resizable=0;points=[];" parent="jSK1wQsOqo6iw2RfOeqB-3" connectable="0" vertex="1">
          <mxGeometry x="-0.53" y="-3" relative="1" as="geometry">
            <mxPoint x="3" as="offset" />
          </mxGeometry>
        </mxCell>
        <mxCell id="jSK1wQsOqo6iw2RfOeqB-4" value="Registrarse" style="ellipse;whiteSpace=wrap;html=1;aspect=fixed;" parent="1" vertex="1">
          <mxGeometry x="-730" y="-140" width="80" height="80" as="geometry" />
        </mxCell>
        <mxCell id="T_bKocLDF5SG0f0tNBpL-328" style="edgeStyle=orthogonalEdgeStyle;rounded=0;orthogonalLoop=1;jettySize=auto;html=1;exitX=1;exitY=0.5;exitDx=0;exitDy=0;endArrow=none;endFill=0;entryX=0.5;entryY=0.5;entryDx=0;entryDy=0;entryPerimeter=0;" parent="1" source="jSK1wQsOqo6iw2RfOeqB-5" target="jSK1wQsOqo6iw2RfOeqB-6" edge="1">
          <mxGeometry relative="1" as="geometry">
            <mxPoint x="-440" y="-50" as="targetPoint" />
          </mxGeometry>
        </mxCell>
        <mxCell id="Albroaq3FVYr9AdbzQTs-22" style="edgeStyle=orthogonalEdgeStyle;rounded=0;orthogonalLoop=1;jettySize=auto;html=1;exitX=0.5;exitY=1;exitDx=0;exitDy=0;entryX=0;entryY=0.5;entryDx=0;entryDy=0;" parent="1" source="jSK1wQsOqo6iw2RfOeqB-5" target="Albroaq3FVYr9AdbzQTs-18" edge="1">
          <mxGeometry relative="1" as="geometry" />
        </mxCell>
        <mxCell id="jSK1wQsOqo6iw2RfOeqB-5" value="IniciarSesion" style="ellipse;whiteSpace=wrap;html=1;aspect=fixed;" parent="1" vertex="1">
          <mxGeometry x="-730" y="-20" width="80" height="80" as="geometry" />
        </mxCell>
        <mxCell id="Albroaq3FVYr9AdbzQTs-26" style="edgeStyle=orthogonalEdgeStyle;rounded=0;orthogonalLoop=1;jettySize=auto;html=1;entryX=1;entryY=0.5;entryDx=0;entryDy=0;endArrow=none;endFill=0;" parent="1" target="Albroaq3FVYr9AdbzQTs-23" edge="1">
          <mxGeometry relative="1" as="geometry">
            <Array as="points">
              <mxPoint x="-190" y="-40" />
              <mxPoint x="-190" y="440" />
            </Array>
            <mxPoint x="-250" y="-40" as="sourcePoint" />
          </mxGeometry>
        </mxCell>
        <mxCell id="jSK1wQsOqo6iw2RfOeqB-6" value="BD" style="shape=umlActor;verticalLabelPosition=bottom;verticalAlign=top;html=1;outlineConnect=0;" parent="1" vertex="1">
          <mxGeometry x="-280" y="-70" width="30" height="60" as="geometry" />
        </mxCell>
        <mxCell id="qQwsvfNcmjzs0gGD21ip-3" style="edgeStyle=orthogonalEdgeStyle;rounded=0;orthogonalLoop=1;jettySize=auto;html=1;exitX=1;exitY=0.3333333333333333;exitDx=0;exitDy=0;exitPerimeter=0;entryX=0;entryY=0.5;entryDx=0;entryDy=0;endArrow=none;endFill=0;" parent="1" source="jSK1wQsOqo6iw2RfOeqB-7" target="Albroaq3FVYr9AdbzQTs-23" edge="1">
          <mxGeometry relative="1" as="geometry" />
        </mxCell>
        <mxCell id="jSK1wQsOqo6iw2RfOeqB-7" value="Espectador" style="shape=umlActor;verticalLabelPosition=bottom;verticalAlign=top;html=1;outlineConnect=0;" parent="1" vertex="1">
          <mxGeometry x="-900" y="420" width="30" height="60" as="geometry" />
        </mxCell>
        <mxCell id="qQwsvfNcmjzs0gGD21ip-4" style="edgeStyle=orthogonalEdgeStyle;rounded=0;orthogonalLoop=1;jettySize=auto;html=1;exitX=1;exitY=0.3333333333333333;exitDx=0;exitDy=0;exitPerimeter=0;entryX=0.5;entryY=0;entryDx=0;entryDy=0;endArrow=none;endFill=0;" parent="1" source="jSK1wQsOqo6iw2RfOeqB-8" target="Albroaq3FVYr9AdbzQTs-41" edge="1">
          <mxGeometry relative="1" as="geometry" />
        </mxCell>
        <mxCell id="jSK1wQsOqo6iw2RfOeqB-8" value="Productor" style="shape=umlActor;verticalLabelPosition=bottom;verticalAlign=top;html=1;outlineConnect=0;" parent="1" vertex="1">
          <mxGeometry x="-890" y="998" width="30" height="60" as="geometry" />
        </mxCell>
        <mxCell id="qQwsvfNcmjzs0gGD21ip-18" style="edgeStyle=orthogonalEdgeStyle;rounded=0;orthogonalLoop=1;jettySize=auto;html=1;exitX=1;exitY=0.3333333333333333;exitDx=0;exitDy=0;exitPerimeter=0;endArrow=none;endFill=0;" parent="1" source="jSK1wQsOqo6iw2RfOeqB-9" target="tjhsjT6ZtuWOGcHWminc-7" edge="1">
          <mxGeometry relative="1" as="geometry" />
        </mxCell>
        <mxCell id="jSK1wQsOqo6iw2RfOeqB-9" value="Programador" style="shape=umlActor;verticalLabelPosition=bottom;verticalAlign=top;html=1;outlineConnect=0;" parent="1" vertex="1">
          <mxGeometry x="-890" y="1990" width="30" height="60" as="geometry" />
        </mxCell>
        <mxCell id="qQwsvfNcmjzs0gGD21ip-19" style="edgeStyle=orthogonalEdgeStyle;rounded=0;orthogonalLoop=1;jettySize=auto;html=1;exitX=1;exitY=0.3333333333333333;exitDx=0;exitDy=0;exitPerimeter=0;endArrow=none;endFill=0;" parent="1" source="jSK1wQsOqo6iw2RfOeqB-10" target="qQwsvfNcmjzs0gGD21ip-1" edge="1">
          <mxGeometry relative="1" as="geometry" />
        </mxCell>
        <mxCell id="jSK1wQsOqo6iw2RfOeqB-10" value="Admin" style="shape=umlActor;verticalLabelPosition=bottom;verticalAlign=top;html=1;outlineConnect=0;" parent="1" vertex="1">
          <mxGeometry x="-880" y="2475" width="30" height="60" as="geometry" />
        </mxCell>
        <mxCell id="T_bKocLDF5SG0f0tNBpL-1" style="edgeStyle=orthogonalEdgeStyle;rounded=0;orthogonalLoop=1;jettySize=auto;html=1;exitX=1;exitY=1;exitDx=0;exitDy=0;entryX=1;entryY=0.5;entryDx=0;entryDy=0;" parent="1" edge="1">
          <mxGeometry relative="1" as="geometry">
            <mxPoint x="700" y="1118.2842712474612" as="sourcePoint" />
          </mxGeometry>
        </mxCell>
        <mxCell id="Albroaq3FVYr9AdbzQTs-3" style="edgeStyle=orthogonalEdgeStyle;rounded=0;orthogonalLoop=1;jettySize=auto;html=1;exitX=1;exitY=0.5;exitDx=0;exitDy=0;entryX=0.5;entryY=0.5;entryDx=0;entryDy=0;entryPerimeter=0;endArrow=none;endFill=0;" parent="1" source="jSK1wQsOqo6iw2RfOeqB-4" target="jSK1wQsOqo6iw2RfOeqB-6" edge="1">
          <mxGeometry relative="1" as="geometry" />
        </mxCell>
        <mxCell id="Albroaq3FVYr9AdbzQTs-18" value="Identificar Usuario" style="ellipse;whiteSpace=wrap;html=1;aspect=fixed;" parent="1" vertex="1">
          <mxGeometry x="-640" y="110" width="80" height="80" as="geometry" />
        </mxCell>
        <mxCell id="Albroaq3FVYr9AdbzQTs-30" style="edgeStyle=orthogonalEdgeStyle;rounded=0;orthogonalLoop=1;jettySize=auto;html=1;exitX=0.5;exitY=1;exitDx=0;exitDy=0;" parent="1" source="Albroaq3FVYr9AdbzQTs-23" target="Albroaq3FVYr9AdbzQTs-28" edge="1">
          <mxGeometry relative="1" as="geometry" />
        </mxCell>
        <mxCell id="Albroaq3FVYr9AdbzQTs-23" value="Mostrar Pagina Principal" style="ellipse;whiteSpace=wrap;html=1;aspect=fixed;" parent="1" vertex="1">
          <mxGeometry x="-720" y="400" width="80" height="80" as="geometry" />
        </mxCell>
        <mxCell id="Albroaq3FVYr9AdbzQTs-32" style="edgeStyle=orthogonalEdgeStyle;rounded=0;orthogonalLoop=1;jettySize=auto;html=1;exitX=0.5;exitY=1;exitDx=0;exitDy=0;entryX=0.5;entryY=0;entryDx=0;entryDy=0;" parent="1" source="Albroaq3FVYr9AdbzQTs-28" target="Albroaq3FVYr9AdbzQTs-31" edge="1">
          <mxGeometry relative="1" as="geometry" />
        </mxCell>
        <mxCell id="Albroaq3FVYr9AdbzQTs-28" value="Solicitar opcion foro" style="ellipse;whiteSpace=wrap;html=1;aspect=fixed;" parent="1" vertex="1">
          <mxGeometry x="-720" y="550" width="80" height="80" as="geometry" />
        </mxCell>
        <mxCell id="Albroaq3FVYr9AdbzQTs-37" style="edgeStyle=orthogonalEdgeStyle;rounded=0;orthogonalLoop=1;jettySize=auto;html=1;entryX=0.5;entryY=0;entryDx=0;entryDy=0;" parent="1" source="Albroaq3FVYr9AdbzQTs-31" target="Albroaq3FVYr9AdbzQTs-35" edge="1">
          <mxGeometry relative="1" as="geometry">
            <Array as="points">
              <mxPoint x="-727" y="720" />
            </Array>
          </mxGeometry>
        </mxCell>
        <mxCell id="Albroaq3FVYr9AdbzQTs-31" value="Mostrar Página Foro" style="ellipse;whiteSpace=wrap;html=1;aspect=fixed;" parent="1" vertex="1">
          <mxGeometry x="-720" y="680" width="80" height="80" as="geometry" />
        </mxCell>
        <mxCell id="Albroaq3FVYr9AdbzQTs-34" value="Solicitar Voto" style="ellipse;whiteSpace=wrap;html=1;aspect=fixed;" parent="1" vertex="1">
          <mxGeometry x="-660" y="775" width="80" height="80" as="geometry" />
        </mxCell>
        <mxCell id="Albroaq3FVYr9AdbzQTs-35" value="Solicitar Like/Dislike" style="ellipse;whiteSpace=wrap;html=1;aspect=fixed;" parent="1" vertex="1">
          <mxGeometry x="-767.5" y="775" width="80" height="80" as="geometry" />
        </mxCell>
        <mxCell id="Albroaq3FVYr9AdbzQTs-40" style="edgeStyle=orthogonalEdgeStyle;rounded=0;orthogonalLoop=1;jettySize=auto;html=1;exitX=1;exitY=0.5;exitDx=0;exitDy=0;entryX=0.5;entryY=0;entryDx=0;entryDy=0;" parent="1" source="Albroaq3FVYr9AdbzQTs-31" target="Albroaq3FVYr9AdbzQTs-34" edge="1">
          <mxGeometry relative="1" as="geometry" />
        </mxCell>
        <mxCell id="T_bKocLDF5SG0f0tNBpL-336" style="edgeStyle=orthogonalEdgeStyle;rounded=0;orthogonalLoop=1;jettySize=auto;html=1;exitX=0.5;exitY=1;exitDx=0;exitDy=0;entryX=0.5;entryY=0.5;entryDx=0;entryDy=0;entryPerimeter=0;endArrow=none;endFill=0;" parent="1" source="Albroaq3FVYr9AdbzQTs-35" target="jSK1wQsOqo6iw2RfOeqB-6" edge="1">
          <mxGeometry relative="1" as="geometry">
            <Array as="points">
              <mxPoint x="-728" y="870" />
              <mxPoint x="-180" y="870" />
              <mxPoint x="-180" y="-40" />
            </Array>
          </mxGeometry>
        </mxCell>
        <mxCell id="T_bKocLDF5SG0f0tNBpL-337" style="edgeStyle=orthogonalEdgeStyle;rounded=0;orthogonalLoop=1;jettySize=auto;html=1;exitX=0.5;exitY=1;exitDx=0;exitDy=0;entryX=0.5;entryY=0.5;entryDx=0;entryDy=0;entryPerimeter=0;endArrow=none;endFill=0;" parent="1" source="Albroaq3FVYr9AdbzQTs-34" target="jSK1wQsOqo6iw2RfOeqB-6" edge="1">
          <mxGeometry relative="1" as="geometry">
            <Array as="points">
              <mxPoint x="-620" y="880" />
              <mxPoint x="-170" y="880" />
              <mxPoint x="-170" y="-40" />
            </Array>
          </mxGeometry>
        </mxCell>
        <mxCell id="tjhsjT6ZtuWOGcHWminc-8" style="edgeStyle=orthogonalEdgeStyle;rounded=0;orthogonalLoop=1;jettySize=auto;html=1;exitX=0;exitY=0.5;exitDx=0;exitDy=0;entryX=0.5;entryY=0;entryDx=0;entryDy=0;" parent="1" source="Albroaq3FVYr9AdbzQTs-41" target="T_bKocLDF5SG0f0tNBpL-350" edge="1">
          <mxGeometry relative="1" as="geometry" />
        </mxCell>
        <mxCell id="tjhsjT6ZtuWOGcHWminc-9" style="edgeStyle=orthogonalEdgeStyle;rounded=0;orthogonalLoop=1;jettySize=auto;html=1;exitX=0;exitY=0.5;exitDx=0;exitDy=0;entryX=0.5;entryY=0;entryDx=0;entryDy=0;" parent="1" source="Albroaq3FVYr9AdbzQTs-41" target="T_bKocLDF5SG0f0tNBpL-348" edge="1">
          <mxGeometry relative="1" as="geometry" />
        </mxCell>
        <mxCell id="tjhsjT6ZtuWOGcHWminc-10" style="edgeStyle=orthogonalEdgeStyle;rounded=0;orthogonalLoop=1;jettySize=auto;html=1;exitX=0;exitY=0.5;exitDx=0;exitDy=0;entryX=0.5;entryY=0;entryDx=0;entryDy=0;" parent="1" source="Albroaq3FVYr9AdbzQTs-41" target="T_bKocLDF5SG0f0tNBpL-347" edge="1">
          <mxGeometry relative="1" as="geometry" />
        </mxCell>
        <mxCell id="tjhsjT6ZtuWOGcHWminc-11" style="edgeStyle=orthogonalEdgeStyle;rounded=0;orthogonalLoop=1;jettySize=auto;html=1;exitX=0;exitY=0.5;exitDx=0;exitDy=0;" parent="1" source="Albroaq3FVYr9AdbzQTs-41" target="T_bKocLDF5SG0f0tNBpL-351" edge="1">
          <mxGeometry relative="1" as="geometry" />
        </mxCell>
        <mxCell id="Albroaq3FVYr9AdbzQTs-41" value="Mostrar Página perfil" style="ellipse;whiteSpace=wrap;html=1;aspect=fixed;" parent="1" vertex="1">
          <mxGeometry x="-597.5" y="1091" width="80" height="80" as="geometry" />
        </mxCell>
        <mxCell id="tjhsjT6ZtuWOGcHWminc-12" style="edgeStyle=orthogonalEdgeStyle;rounded=0;orthogonalLoop=1;jettySize=auto;html=1;exitX=1;exitY=0.3333333333333333;exitDx=0;exitDy=0;exitPerimeter=0;entryX=1;entryY=0;entryDx=0;entryDy=0;endArrow=none;endFill=0;" parent="1" source="T_bKocLDF5SG0f0tNBpL-342" target="Albroaq3FVYr9AdbzQTs-41" edge="1">
          <mxGeometry relative="1" as="geometry" />
        </mxCell>
        <mxCell id="T_bKocLDF5SG0f0tNBpL-342" value="Editor" style="shape=umlActor;verticalLabelPosition=bottom;verticalAlign=top;html=1;outlineConnect=0;" parent="1" vertex="1">
          <mxGeometry x="-890" y="910" width="30" height="60" as="geometry" />
        </mxCell>
        <mxCell id="T_bKocLDF5SG0f0tNBpL-356" style="edgeStyle=orthogonalEdgeStyle;rounded=0;orthogonalLoop=1;jettySize=auto;html=1;exitX=0.5;exitY=1;exitDx=0;exitDy=0;entryX=0.5;entryY=0;entryDx=0;entryDy=0;" parent="1" target="T_bKocLDF5SG0f0tNBpL-348" edge="1">
          <mxGeometry relative="1" as="geometry">
            <mxPoint x="-830" y="1135" as="sourcePoint" />
          </mxGeometry>
        </mxCell>
        <mxCell id="tjhsjT6ZtuWOGcHWminc-34" style="edgeStyle=orthogonalEdgeStyle;rounded=0;orthogonalLoop=1;jettySize=auto;html=1;exitX=0.5;exitY=1;exitDx=0;exitDy=0;entryX=0.5;entryY=0;entryDx=0;entryDy=0;" parent="1" source="T_bKocLDF5SG0f0tNBpL-347" target="tjhsjT6ZtuWOGcHWminc-33" edge="1">
          <mxGeometry relative="1" as="geometry" />
        </mxCell>
        <mxCell id="T_bKocLDF5SG0f0tNBpL-347" value="Solicitar opción de subida contenido" style="ellipse;whiteSpace=wrap;html=1;aspect=fixed;" parent="1" vertex="1">
          <mxGeometry x="-960" y="1190" width="80" height="80" as="geometry" />
        </mxCell>
        <mxCell id="tjhsjT6ZtuWOGcHWminc-37" style="edgeStyle=orthogonalEdgeStyle;rounded=0;orthogonalLoop=1;jettySize=auto;html=1;exitX=0.5;exitY=1;exitDx=0;exitDy=0;entryX=0.5;entryY=0;entryDx=0;entryDy=0;" parent="1" source="T_bKocLDF5SG0f0tNBpL-348" target="tjhsjT6ZtuWOGcHWminc-36" edge="1">
          <mxGeometry relative="1" as="geometry" />
        </mxCell>
        <mxCell id="T_bKocLDF5SG0f0tNBpL-348" value="Solicitar opcion de estado y aprobación" style="ellipse;whiteSpace=wrap;html=1;aspect=fixed;" parent="1" vertex="1">
          <mxGeometry x="-870" y="1190" width="80" height="80" as="geometry" />
        </mxCell>
        <mxCell id="T_bKocLDF5SG0f0tNBpL-350" value="Solicitar opción parrila semanal" style="ellipse;whiteSpace=wrap;html=1;aspect=fixed;" parent="1" vertex="1">
          <mxGeometry x="-780" y="1190" width="80" height="80" as="geometry" />
        </mxCell>
        <mxCell id="tjhsjT6ZtuWOGcHWminc-25" style="edgeStyle=orthogonalEdgeStyle;rounded=0;orthogonalLoop=1;jettySize=auto;html=1;exitX=0.5;exitY=1;exitDx=0;exitDy=0;entryX=0.5;entryY=0;entryDx=0;entryDy=0;" parent="1" source="T_bKocLDF5SG0f0tNBpL-351" target="tjhsjT6ZtuWOGcHWminc-24" edge="1">
          <mxGeometry relative="1" as="geometry" />
        </mxCell>
        <mxCell id="T_bKocLDF5SG0f0tNBpL-351" value="Solicitar opción gestión multimedia" style="ellipse;whiteSpace=wrap;html=1;aspect=fixed;" parent="1" vertex="1">
          <mxGeometry x="-1050" y="1190" width="80" height="80" as="geometry" />
        </mxCell>
        <mxCell id="tjhsjT6ZtuWOGcHWminc-32" style="edgeStyle=orthogonalEdgeStyle;rounded=0;orthogonalLoop=1;jettySize=auto;html=1;exitX=0.5;exitY=1;exitDx=0;exitDy=0;" parent="1" source="T_bKocLDF5SG0f0tNBpL-352" target="tjhsjT6ZtuWOGcHWminc-28" edge="1">
          <mxGeometry relative="1" as="geometry" />
        </mxCell>
        <mxCell id="T_bKocLDF5SG0f0tNBpL-352" value="Solicitar opción audio" style="ellipse;whiteSpace=wrap;html=1;aspect=fixed;" parent="1" vertex="1">
          <mxGeometry x="-1140" y="1390" width="80" height="80" as="geometry" />
        </mxCell>
        <mxCell id="tjhsjT6ZtuWOGcHWminc-31" style="edgeStyle=orthogonalEdgeStyle;rounded=0;orthogonalLoop=1;jettySize=auto;html=1;exitX=0.5;exitY=1;exitDx=0;exitDy=0;entryX=0.5;entryY=0;entryDx=0;entryDy=0;" parent="1" source="T_bKocLDF5SG0f0tNBpL-353" target="tjhsjT6ZtuWOGcHWminc-29" edge="1">
          <mxGeometry relative="1" as="geometry" />
        </mxCell>
        <mxCell id="T_bKocLDF5SG0f0tNBpL-353" value="Solicitar opción programa" style="ellipse;whiteSpace=wrap;html=1;aspect=fixed;" parent="1" vertex="1">
          <mxGeometry x="-1050" y="1390" width="80" height="80" as="geometry" />
        </mxCell>
        <mxCell id="tjhsjT6ZtuWOGcHWminc-1" value="Solicitar opción de aprobación/desaprobación" style="ellipse;whiteSpace=wrap;html=1;aspect=fixed;" parent="1" vertex="1">
          <mxGeometry x="-760" y="1310" width="140" height="140" as="geometry" />
        </mxCell>
        <mxCell id="tjhsjT6ZtuWOGcHWminc-3" value="Solicitar relleno de formulario" style="ellipse;whiteSpace=wrap;html=1;aspect=fixed;" parent="1" vertex="1">
          <mxGeometry x="-960" y="1400" width="80" height="80" as="geometry" />
        </mxCell>
        <mxCell id="tjhsjT6ZtuWOGcHWminc-5" style="edgeStyle=orthogonalEdgeStyle;rounded=0;orthogonalLoop=1;jettySize=auto;html=1;exitX=0.5;exitY=1;exitDx=0;exitDy=0;endArrow=none;endFill=0;" parent="1" source="tjhsjT6ZtuWOGcHWminc-3" edge="1">
          <mxGeometry relative="1" as="geometry">
            <Array as="points">
              <mxPoint x="-920" y="1480" />
              <mxPoint x="-160" y="1480" />
              <mxPoint x="-160" y="-40" />
            </Array>
            <mxPoint x="-250" y="-40" as="targetPoint" />
          </mxGeometry>
        </mxCell>
        <mxCell id="tjhsjT6ZtuWOGcHWminc-6" style="edgeStyle=orthogonalEdgeStyle;rounded=0;orthogonalLoop=1;jettySize=auto;html=1;exitX=0.5;exitY=1;exitDx=0;exitDy=0;endArrow=none;endFill=0;" parent="1" source="tjhsjT6ZtuWOGcHWminc-1" edge="1">
          <mxGeometry relative="1" as="geometry">
            <Array as="points">
              <mxPoint x="-680" y="1450" />
              <mxPoint x="-680" y="1470" />
              <mxPoint x="-150" y="1470" />
              <mxPoint x="-150" y="-40" />
            </Array>
            <mxPoint x="-250" y="-40" as="targetPoint" />
          </mxGeometry>
        </mxCell>
        <mxCell id="tjhsjT6ZtuWOGcHWminc-55" style="edgeStyle=orthogonalEdgeStyle;rounded=0;orthogonalLoop=1;jettySize=auto;html=1;exitX=0.5;exitY=1;exitDx=0;exitDy=0;" parent="1" source="qQwsvfNcmjzs0gGD21ip-1" target="qQwsvfNcmjzs0gGD21ip-20" edge="1">
          <mxGeometry relative="1" as="geometry" />
        </mxCell>
        <mxCell id="qQwsvfNcmjzs0gGD21ip-1" value="Mostrar Página perfil" style="ellipse;whiteSpace=wrap;html=1;aspect=fixed;" parent="1" vertex="1">
          <mxGeometry x="-687.5" y="2455" width="80" height="80" as="geometry" />
        </mxCell>
        <mxCell id="qQwsvfNcmjzs0gGD21ip-10" style="edgeStyle=orthogonalEdgeStyle;rounded=0;orthogonalLoop=1;jettySize=auto;html=1;exitX=1;exitY=0.3333333333333333;exitDx=0;exitDy=0;exitPerimeter=0;entryX=0.037;entryY=0.383;entryDx=0;entryDy=0;entryPerimeter=0;endArrow=none;endFill=0;" parent="1" source="jSK1wQsOqo6iw2RfOeqB-2" target="jSK1wQsOqo6iw2RfOeqB-4" edge="1">
          <mxGeometry relative="1" as="geometry" />
        </mxCell>
        <mxCell id="tjhsjT6ZtuWOGcHWminc-21" style="edgeStyle=orthogonalEdgeStyle;rounded=0;orthogonalLoop=1;jettySize=auto;html=1;exitX=0.5;exitY=1;exitDx=0;exitDy=0;entryX=0.5;entryY=0;entryDx=0;entryDy=0;" parent="1" source="tjhsjT6ZtuWOGcHWminc-7" target="tjhsjT6ZtuWOGcHWminc-20" edge="1">
          <mxGeometry relative="1" as="geometry" />
        </mxCell>
        <mxCell id="tjhsjT6ZtuWOGcHWminc-22" style="edgeStyle=orthogonalEdgeStyle;rounded=0;orthogonalLoop=1;jettySize=auto;html=1;exitX=0.5;exitY=1;exitDx=0;exitDy=0;entryX=0.5;entryY=0;entryDx=0;entryDy=0;" parent="1" source="tjhsjT6ZtuWOGcHWminc-7" target="tjhsjT6ZtuWOGcHWminc-18" edge="1">
          <mxGeometry relative="1" as="geometry" />
        </mxCell>
        <mxCell id="tjhsjT6ZtuWOGcHWminc-23" style="edgeStyle=orthogonalEdgeStyle;rounded=0;orthogonalLoop=1;jettySize=auto;html=1;exitX=0.5;exitY=1;exitDx=0;exitDy=0;entryX=0.5;entryY=0;entryDx=0;entryDy=0;" parent="1" source="tjhsjT6ZtuWOGcHWminc-7" target="tjhsjT6ZtuWOGcHWminc-19" edge="1">
          <mxGeometry relative="1" as="geometry" />
        </mxCell>
        <mxCell id="tjhsjT6ZtuWOGcHWminc-7" value="Mostrar Pagina Principal" style="ellipse;whiteSpace=wrap;html=1;aspect=fixed;" parent="1" vertex="1">
          <mxGeometry x="-720" y="1970" width="80" height="80" as="geometry" />
        </mxCell>
        <mxCell id="tjhsjT6ZtuWOGcHWminc-47" style="edgeStyle=orthogonalEdgeStyle;rounded=0;orthogonalLoop=1;jettySize=auto;html=1;exitX=0.5;exitY=1;exitDx=0;exitDy=0;entryX=0.5;entryY=0;entryDx=0;entryDy=0;" parent="1" source="tjhsjT6ZtuWOGcHWminc-18" target="tjhsjT6ZtuWOGcHWminc-42" edge="1">
          <mxGeometry relative="1" as="geometry" />
        </mxCell>
        <mxCell id="tjhsjT6ZtuWOGcHWminc-18" value="Solicitar opción control emisión en vivo" style="ellipse;whiteSpace=wrap;html=1;aspect=fixed;" parent="1" vertex="1">
          <mxGeometry x="-720" y="2100" width="80" height="80" as="geometry" />
        </mxCell>
        <mxCell id="tjhsjT6ZtuWOGcHWminc-48" style="edgeStyle=orthogonalEdgeStyle;rounded=0;orthogonalLoop=1;jettySize=auto;html=1;exitX=0.5;exitY=1;exitDx=0;exitDy=0;entryX=0.5;entryY=0;entryDx=0;entryDy=0;" parent="1" source="tjhsjT6ZtuWOGcHWminc-19" target="tjhsjT6ZtuWOGcHWminc-43" edge="1">
          <mxGeometry relative="1" as="geometry" />
        </mxCell>
        <mxCell id="tjhsjT6ZtuWOGcHWminc-19" value="Solicitar opcion ver errores" style="ellipse;whiteSpace=wrap;html=1;aspect=fixed;" parent="1" vertex="1">
          <mxGeometry x="-630" y="2100" width="80" height="80" as="geometry" />
        </mxCell>
        <mxCell id="tjhsjT6ZtuWOGcHWminc-46" style="edgeStyle=orthogonalEdgeStyle;rounded=0;orthogonalLoop=1;jettySize=auto;html=1;exitX=0.5;exitY=1;exitDx=0;exitDy=0;entryX=0.5;entryY=0;entryDx=0;entryDy=0;" parent="1" source="tjhsjT6ZtuWOGcHWminc-20" target="tjhsjT6ZtuWOGcHWminc-44" edge="1">
          <mxGeometry relative="1" as="geometry" />
        </mxCell>
        <mxCell id="tjhsjT6ZtuWOGcHWminc-20" value="Solicitar armado parrilla horaria" style="ellipse;whiteSpace=wrap;html=1;aspect=fixed;" parent="1" vertex="1">
          <mxGeometry x="-810" y="2100" width="80" height="80" as="geometry" />
        </mxCell>
        <mxCell id="tjhsjT6ZtuWOGcHWminc-26" style="edgeStyle=orthogonalEdgeStyle;rounded=0;orthogonalLoop=1;jettySize=auto;html=1;exitX=0.5;exitY=1;exitDx=0;exitDy=0;entryX=0.5;entryY=0;entryDx=0;entryDy=0;" parent="1" source="tjhsjT6ZtuWOGcHWminc-24" target="T_bKocLDF5SG0f0tNBpL-353" edge="1">
          <mxGeometry relative="1" as="geometry" />
        </mxCell>
        <mxCell id="tjhsjT6ZtuWOGcHWminc-27" style="edgeStyle=orthogonalEdgeStyle;rounded=0;orthogonalLoop=1;jettySize=auto;html=1;exitX=0;exitY=0.5;exitDx=0;exitDy=0;entryX=0.5;entryY=0;entryDx=0;entryDy=0;" parent="1" source="tjhsjT6ZtuWOGcHWminc-24" target="T_bKocLDF5SG0f0tNBpL-352" edge="1">
          <mxGeometry relative="1" as="geometry" />
        </mxCell>
        <mxCell id="tjhsjT6ZtuWOGcHWminc-24" value="Mostrar página gestión multimedia" style="ellipse;whiteSpace=wrap;html=1;aspect=fixed;" parent="1" vertex="1">
          <mxGeometry x="-1050" y="1290" width="80" height="80" as="geometry" />
        </mxCell>
        <mxCell id="tjhsjT6ZtuWOGcHWminc-28" value="Mostrar página gestión audio" style="ellipse;whiteSpace=wrap;html=1;aspect=fixed;" parent="1" vertex="1">
          <mxGeometry x="-1140" y="1500" width="80" height="80" as="geometry" />
        </mxCell>
        <mxCell id="tjhsjT6ZtuWOGcHWminc-29" value="Mostrar página gestión programa" style="ellipse;whiteSpace=wrap;html=1;aspect=fixed;" parent="1" vertex="1">
          <mxGeometry x="-1050" y="1500" width="80" height="80" as="geometry" />
        </mxCell>
        <mxCell id="tjhsjT6ZtuWOGcHWminc-35" style="edgeStyle=orthogonalEdgeStyle;rounded=0;orthogonalLoop=1;jettySize=auto;html=1;exitX=0.5;exitY=1;exitDx=0;exitDy=0;" parent="1" source="tjhsjT6ZtuWOGcHWminc-33" target="tjhsjT6ZtuWOGcHWminc-3" edge="1">
          <mxGeometry relative="1" as="geometry" />
        </mxCell>
        <mxCell id="tjhsjT6ZtuWOGcHWminc-33" value="Mostrar Página subida de contenido" style="ellipse;whiteSpace=wrap;html=1;aspect=fixed;" parent="1" vertex="1">
          <mxGeometry x="-960" y="1295" width="80" height="80" as="geometry" />
        </mxCell>
        <mxCell id="tjhsjT6ZtuWOGcHWminc-38" style="edgeStyle=orthogonalEdgeStyle;rounded=0;orthogonalLoop=1;jettySize=auto;html=1;exitX=0.5;exitY=1;exitDx=0;exitDy=0;entryX=0;entryY=0.5;entryDx=0;entryDy=0;" parent="1" source="tjhsjT6ZtuWOGcHWminc-36" target="tjhsjT6ZtuWOGcHWminc-1" edge="1">
          <mxGeometry relative="1" as="geometry">
            <Array as="points">
              <mxPoint x="-830" y="1380" />
            </Array>
          </mxGeometry>
        </mxCell>
        <mxCell id="tjhsjT6ZtuWOGcHWminc-36" value="Mostrar Página aprobación" style="ellipse;whiteSpace=wrap;html=1;aspect=fixed;" parent="1" vertex="1">
          <mxGeometry x="-870" y="1295" width="80" height="80" as="geometry" />
        </mxCell>
        <mxCell id="tjhsjT6ZtuWOGcHWminc-42" value="Mostrar Página control de emisión" style="ellipse;whiteSpace=wrap;html=1;aspect=fixed;" parent="1" vertex="1">
          <mxGeometry x="-720" y="2200" width="80" height="80" as="geometry" />
        </mxCell>
        <mxCell id="tjhsjT6ZtuWOGcHWminc-43" value="Mostrar Página de errores" style="ellipse;whiteSpace=wrap;html=1;aspect=fixed;" parent="1" vertex="1">
          <mxGeometry x="-630" y="2200" width="80" height="80" as="geometry" />
        </mxCell>
        <mxCell id="tjhsjT6ZtuWOGcHWminc-49" style="edgeStyle=orthogonalEdgeStyle;rounded=0;orthogonalLoop=1;jettySize=auto;html=1;exitX=0.5;exitY=1;exitDx=0;exitDy=0;entryX=0.5;entryY=0;entryDx=0;entryDy=0;" parent="1" source="tjhsjT6ZtuWOGcHWminc-44" target="tjhsjT6ZtuWOGcHWminc-45" edge="1">
          <mxGeometry relative="1" as="geometry" />
        </mxCell>
        <mxCell id="tjhsjT6ZtuWOGcHWminc-44" value="Mostrar Página parrilla" style="ellipse;whiteSpace=wrap;html=1;aspect=fixed;" parent="1" vertex="1">
          <mxGeometry x="-810" y="2200" width="80" height="80" as="geometry" />
        </mxCell>
        <mxCell id="tjhsjT6ZtuWOGcHWminc-45" value="Solicitar armado de parrilla" style="ellipse;whiteSpace=wrap;html=1;aspect=fixed;" parent="1" vertex="1">
          <mxGeometry x="-810" y="2295" width="80" height="80" as="geometry" />
        </mxCell>
        <mxCell id="tjhsjT6ZtuWOGcHWminc-50" style="edgeStyle=orthogonalEdgeStyle;rounded=0;orthogonalLoop=1;jettySize=auto;html=1;exitX=1;exitY=0.5;exitDx=0;exitDy=0;entryX=1;entryY=0.3333333333333333;entryDx=0;entryDy=0;entryPerimeter=0;endArrow=none;endFill=0;" parent="1" source="tjhsjT6ZtuWOGcHWminc-45" target="jSK1wQsOqo6iw2RfOeqB-6" edge="1">
          <mxGeometry relative="1" as="geometry">
            <Array as="points">
              <mxPoint x="-150" y="2335" />
              <mxPoint x="-150" y="-50" />
            </Array>
          </mxGeometry>
        </mxCell>
        <mxCell id="tjhsjT6ZtuWOGcHWminc-57" style="edgeStyle=orthogonalEdgeStyle;rounded=0;orthogonalLoop=1;jettySize=auto;html=1;exitX=0.5;exitY=1;exitDx=0;exitDy=0;" parent="1" source="qQwsvfNcmjzs0gGD21ip-20" target="tjhsjT6ZtuWOGcHWminc-56" edge="1">
          <mxGeometry relative="1" as="geometry" />
        </mxCell>
        <mxCell id="qQwsvfNcmjzs0gGD21ip-20" value="Solicitar opción de ABM" style="ellipse;whiteSpace=wrap;html=1;aspect=fixed;" parent="1" vertex="1">
          <mxGeometry x="-687.5" y="2550" width="80" height="80" as="geometry" />
        </mxCell>
        <mxCell id="tjhsjT6ZtuWOGcHWminc-67" style="edgeStyle=orthogonalEdgeStyle;rounded=0;orthogonalLoop=1;jettySize=auto;html=1;exitX=0.5;exitY=1;exitDx=0;exitDy=0;" parent="1" source="qQwsvfNcmjzs0gGD21ip-21" target="qQwsvfNcmjzs0gGD21ip-30" edge="1">
          <mxGeometry relative="1" as="geometry" />
        </mxCell>
        <mxCell id="qQwsvfNcmjzs0gGD21ip-21" value="Solicitar Opcion ABM programas" style="ellipse;whiteSpace=wrap;html=1;aspect=fixed;" parent="1" vertex="1">
          <mxGeometry x="-822.5" y="2750" width="80" height="80" as="geometry" />
        </mxCell>
        <mxCell id="tjhsjT6ZtuWOGcHWminc-69" style="edgeStyle=orthogonalEdgeStyle;rounded=0;orthogonalLoop=1;jettySize=auto;html=1;exitX=0.5;exitY=1;exitDx=0;exitDy=0;entryX=0.5;entryY=0;entryDx=0;entryDy=0;" parent="1" source="qQwsvfNcmjzs0gGD21ip-22" target="tjhsjT6ZtuWOGcHWminc-64" edge="1">
          <mxGeometry relative="1" as="geometry" />
        </mxCell>
        <mxCell id="qQwsvfNcmjzs0gGD21ip-22" value="Solicitar Opcion ABM de segmentos" style="ellipse;whiteSpace=wrap;html=1;aspect=fixed;" parent="1" vertex="1">
          <mxGeometry x="-732.5" y="2750" width="80" height="80" as="geometry" />
        </mxCell>
        <mxCell id="tjhsjT6ZtuWOGcHWminc-70" style="edgeStyle=orthogonalEdgeStyle;rounded=0;orthogonalLoop=1;jettySize=auto;html=1;exitX=0.5;exitY=1;exitDx=0;exitDy=0;entryX=0.5;entryY=0;entryDx=0;entryDy=0;" parent="1" source="qQwsvfNcmjzs0gGD21ip-23" target="tjhsjT6ZtuWOGcHWminc-66" edge="1">
          <mxGeometry relative="1" as="geometry" />
        </mxCell>
        <mxCell id="qQwsvfNcmjzs0gGD21ip-23" value="Solicitar Opcion ABM de usuarios" style="ellipse;whiteSpace=wrap;html=1;aspect=fixed;" parent="1" vertex="1">
          <mxGeometry x="-642.5" y="2750" width="80" height="80" as="geometry" />
        </mxCell>
        <mxCell id="tjhsjT6ZtuWOGcHWminc-71" style="edgeStyle=orthogonalEdgeStyle;rounded=0;orthogonalLoop=1;jettySize=auto;html=1;exitX=0.5;exitY=1;exitDx=0;exitDy=0;" parent="1" source="qQwsvfNcmjzs0gGD21ip-24" target="tjhsjT6ZtuWOGcHWminc-65" edge="1">
          <mxGeometry relative="1" as="geometry" />
        </mxCell>
        <mxCell id="qQwsvfNcmjzs0gGD21ip-24" value="Solicitar Opcion ABM de plataformas" style="ellipse;whiteSpace=wrap;html=1;aspect=fixed;" parent="1" vertex="1">
          <mxGeometry x="-552.5" y="2750" width="80" height="80" as="geometry" />
        </mxCell>
        <mxCell id="tjhsjT6ZtuWOGcHWminc-58" style="edgeStyle=orthogonalEdgeStyle;rounded=0;orthogonalLoop=1;jettySize=auto;html=1;exitX=0;exitY=0.5;exitDx=0;exitDy=0;" parent="1" source="tjhsjT6ZtuWOGcHWminc-56" target="qQwsvfNcmjzs0gGD21ip-21" edge="1">
          <mxGeometry relative="1" as="geometry" />
        </mxCell>
        <mxCell id="tjhsjT6ZtuWOGcHWminc-59" style="edgeStyle=orthogonalEdgeStyle;rounded=0;orthogonalLoop=1;jettySize=auto;html=1;exitX=0;exitY=1;exitDx=0;exitDy=0;entryX=0.5;entryY=0;entryDx=0;entryDy=0;" parent="1" source="tjhsjT6ZtuWOGcHWminc-56" target="qQwsvfNcmjzs0gGD21ip-22" edge="1">
          <mxGeometry relative="1" as="geometry">
            <Array as="points">
              <mxPoint x="-692" y="2713" />
              <mxPoint x="-692" y="2745" />
            </Array>
          </mxGeometry>
        </mxCell>
        <mxCell id="tjhsjT6ZtuWOGcHWminc-60" style="edgeStyle=orthogonalEdgeStyle;rounded=0;orthogonalLoop=1;jettySize=auto;html=1;exitX=1;exitY=1;exitDx=0;exitDy=0;entryX=0.5;entryY=0;entryDx=0;entryDy=0;" parent="1" source="tjhsjT6ZtuWOGcHWminc-56" target="qQwsvfNcmjzs0gGD21ip-23" edge="1">
          <mxGeometry relative="1" as="geometry">
            <Array as="points">
              <mxPoint x="-602" y="2713" />
              <mxPoint x="-602" y="2745" />
            </Array>
          </mxGeometry>
        </mxCell>
        <mxCell id="tjhsjT6ZtuWOGcHWminc-61" style="edgeStyle=orthogonalEdgeStyle;rounded=0;orthogonalLoop=1;jettySize=auto;html=1;exitX=1;exitY=0.5;exitDx=0;exitDy=0;" parent="1" source="tjhsjT6ZtuWOGcHWminc-56" target="qQwsvfNcmjzs0gGD21ip-24" edge="1">
          <mxGeometry relative="1" as="geometry" />
        </mxCell>
        <mxCell id="tjhsjT6ZtuWOGcHWminc-56" value="Mostrar Página ABM" style="ellipse;whiteSpace=wrap;html=1;aspect=fixed;" parent="1" vertex="1">
          <mxGeometry x="-687.5" y="2645" width="80" height="80" as="geometry" />
        </mxCell>
        <mxCell id="tjhsjT6ZtuWOGcHWminc-74" style="edgeStyle=orthogonalEdgeStyle;rounded=0;orthogonalLoop=1;jettySize=auto;html=1;exitX=0.5;exitY=1;exitDx=0;exitDy=0;entryX=0;entryY=0;entryDx=0;entryDy=0;" parent="1" source="tjhsjT6ZtuWOGcHWminc-64" target="tjhsjT6ZtuWOGcHWminc-72" edge="1">
          <mxGeometry relative="1" as="geometry" />
        </mxCell>
        <mxCell id="tjhsjT6ZtuWOGcHWminc-64" value="Mostrar Página ABM de segmentos" style="ellipse;whiteSpace=wrap;html=1;aspect=fixed;" parent="1" vertex="1">
          <mxGeometry x="-732.5" y="2850" width="80" height="80" as="geometry" />
        </mxCell>
        <mxCell id="tjhsjT6ZtuWOGcHWminc-76" style="edgeStyle=orthogonalEdgeStyle;rounded=0;orthogonalLoop=1;jettySize=auto;html=1;exitX=0.5;exitY=1;exitDx=0;exitDy=0;entryX=1;entryY=0.5;entryDx=0;entryDy=0;" parent="1" source="tjhsjT6ZtuWOGcHWminc-65" target="tjhsjT6ZtuWOGcHWminc-72" edge="1">
          <mxGeometry relative="1" as="geometry" />
        </mxCell>
        <mxCell id="tjhsjT6ZtuWOGcHWminc-65" value="Mostrar Página ABM de plataformas" style="ellipse;whiteSpace=wrap;html=1;aspect=fixed;" parent="1" vertex="1">
          <mxGeometry x="-552.5" y="2850" width="80" height="80" as="geometry" />
        </mxCell>
        <mxCell id="tjhsjT6ZtuWOGcHWminc-66" value="Mostrar Página ABM de usuarios" style="ellipse;whiteSpace=wrap;html=1;aspect=fixed;" parent="1" vertex="1">
          <mxGeometry x="-642.5" y="2850" width="80" height="80" as="geometry" />
        </mxCell>
        <mxCell id="tjhsjT6ZtuWOGcHWminc-72" value="Solicitar datos&amp;nbsp;" style="ellipse;whiteSpace=wrap;html=1;aspect=fixed;" parent="1" vertex="1">
          <mxGeometry x="-687.5" y="2970" width="80" height="80" as="geometry" />
        </mxCell>
        <mxCell id="qQwsvfNcmjzs0gGD21ip-30" value="Mostrar Página ABM de programas" style="ellipse;whiteSpace=wrap;html=1;aspect=fixed;" parent="1" vertex="1">
          <mxGeometry x="-822.5" y="2850" width="80" height="80" as="geometry" />
        </mxCell>
        <mxCell id="tjhsjT6ZtuWOGcHWminc-75" style="edgeStyle=orthogonalEdgeStyle;rounded=0;orthogonalLoop=1;jettySize=auto;html=1;exitX=0.5;exitY=1;exitDx=0;exitDy=0;entryX=1;entryY=0;entryDx=0;entryDy=0;" parent="1" source="tjhsjT6ZtuWOGcHWminc-66" target="tjhsjT6ZtuWOGcHWminc-72" edge="1">
          <mxGeometry relative="1" as="geometry" />
        </mxCell>
        <mxCell id="tjhsjT6ZtuWOGcHWminc-73" style="edgeStyle=orthogonalEdgeStyle;rounded=0;orthogonalLoop=1;jettySize=auto;html=1;exitX=0.5;exitY=1;exitDx=0;exitDy=0;entryX=0;entryY=0.5;entryDx=0;entryDy=0;" parent="1" source="qQwsvfNcmjzs0gGD21ip-30" target="tjhsjT6ZtuWOGcHWminc-72" edge="1">
          <mxGeometry relative="1" as="geometry" />
        </mxCell>
        <mxCell id="qQwsvfNcmjzs0gGD21ip-32" style="edgeStyle=orthogonalEdgeStyle;rounded=0;orthogonalLoop=1;jettySize=auto;html=1;exitX=0.5;exitY=1;exitDx=0;exitDy=0;entryX=1;entryY=0.3333333333333333;entryDx=0;entryDy=0;entryPerimeter=0;endArrow=none;endFill=0;" parent="1" source="tjhsjT6ZtuWOGcHWminc-72" target="jSK1wQsOqo6iw2RfOeqB-6" edge="1">
          <mxGeometry relative="1" as="geometry">
            <mxPoint x="-110" y="570" as="targetPoint" />
            <Array as="points">
              <mxPoint x="-647" y="3070" />
              <mxPoint x="-140" y="3070" />
              <mxPoint x="-140" y="-50" />
            </Array>
          </mxGeometry>
        </mxCell>
        <mxCell id="tjhsjT6ZtuWOGcHWminc-79" value="" style="endArrow=none;html=1;rounded=0;dashed=1;strokeWidth=8;strokeColor=#FF0000;" parent="1" edge="1">
          <mxGeometry width="50" height="50" relative="1" as="geometry">
            <mxPoint x="-800" y="390" as="sourcePoint" />
            <mxPoint x="-800" y="-440" as="targetPoint" />
          </mxGeometry>
        </mxCell>
        <mxCell id="tjhsjT6ZtuWOGcHWminc-80" value="" style="endArrow=none;html=1;rounded=0;dashed=1;strokeWidth=8;strokeColor=#FF0000;" parent="1" edge="1">
          <mxGeometry width="50" height="50" relative="1" as="geometry">
            <mxPoint x="-990" y="390" as="sourcePoint" />
            <mxPoint x="-800" y="390" as="targetPoint" />
          </mxGeometry>
        </mxCell>
        <mxCell id="tjhsjT6ZtuWOGcHWminc-81" value="" style="endArrow=none;html=1;rounded=0;dashed=1;strokeWidth=8;strokeColor=#FF0000;" parent="1" edge="1">
          <mxGeometry width="50" height="50" relative="1" as="geometry">
            <mxPoint x="-990" y="890" as="sourcePoint" />
            <mxPoint x="-990" y="390" as="targetPoint" />
          </mxGeometry>
        </mxCell>
        <mxCell id="tjhsjT6ZtuWOGcHWminc-82" value="" style="endArrow=none;html=1;rounded=0;dashed=1;strokeWidth=8;strokeColor=#FF0000;" parent="1" edge="1">
          <mxGeometry width="50" height="50" relative="1" as="geometry">
            <mxPoint x="-990" y="890" as="sourcePoint" />
            <mxPoint x="-480" y="890" as="targetPoint" />
          </mxGeometry>
        </mxCell>
        <mxCell id="tjhsjT6ZtuWOGcHWminc-83" value="" style="endArrow=none;html=1;rounded=0;dashed=1;strokeWidth=8;strokeColor=#FF0000;" parent="1" edge="1">
          <mxGeometry width="50" height="50" relative="1" as="geometry">
            <mxPoint x="-480" y="1080" as="sourcePoint" />
            <mxPoint x="-480" y="890" as="targetPoint" />
          </mxGeometry>
        </mxCell>
        <mxCell id="tjhsjT6ZtuWOGcHWminc-84" value="" style="endArrow=none;html=1;rounded=0;dashed=1;strokeWidth=8;strokeColor=#FF0000;" parent="1" edge="1">
          <mxGeometry width="50" height="50" relative="1" as="geometry">
            <mxPoint x="-1220" y="1080" as="sourcePoint" />
            <mxPoint x="-480" y="1080" as="targetPoint" />
          </mxGeometry>
        </mxCell>
        <mxCell id="tjhsjT6ZtuWOGcHWminc-85" value="" style="endArrow=none;html=1;rounded=0;dashed=1;strokeWidth=8;strokeColor=#FF0000;" parent="1" edge="1">
          <mxGeometry width="50" height="50" relative="1" as="geometry">
            <mxPoint x="-1220" y="1950" as="sourcePoint" />
            <mxPoint x="-1220" y="1080" as="targetPoint" />
          </mxGeometry>
        </mxCell>
        <mxCell id="tjhsjT6ZtuWOGcHWminc-86" value="" style="endArrow=none;html=1;rounded=0;dashed=1;strokeWidth=8;strokeColor=#FF0000;" parent="1" edge="1">
          <mxGeometry width="50" height="50" relative="1" as="geometry">
            <mxPoint x="-1220" y="1950" as="sourcePoint" />
            <mxPoint x="-830" y="1950" as="targetPoint" />
          </mxGeometry>
        </mxCell>
        <mxCell id="tjhsjT6ZtuWOGcHWminc-87" value="" style="endArrow=none;html=1;rounded=0;dashed=1;strokeWidth=8;strokeColor=#FF0000;" parent="1" edge="1">
          <mxGeometry width="50" height="50" relative="1" as="geometry">
            <mxPoint x="-830" y="3130" as="sourcePoint" />
            <mxPoint x="-830" y="1950" as="targetPoint" />
          </mxGeometry>
        </mxCell>
        <mxCell id="tjhsjT6ZtuWOGcHWminc-88" value="" style="endArrow=none;html=1;rounded=0;dashed=1;strokeWidth=8;strokeColor=#FF0000;" parent="1" edge="1">
          <mxGeometry width="50" height="50" relative="1" as="geometry">
            <mxPoint x="-830" y="3130" as="sourcePoint" />
            <mxPoint x="-280" y="3130" as="targetPoint" />
          </mxGeometry>
        </mxCell>
        <mxCell id="tjhsjT6ZtuWOGcHWminc-89" value="" style="endArrow=none;html=1;rounded=0;dashed=1;strokeWidth=8;strokeColor=#FF0000;" parent="1" edge="1">
          <mxGeometry width="50" height="50" relative="1" as="geometry">
            <mxPoint x="-800" y="-440" as="sourcePoint" />
            <mxPoint x="-300" y="-430" as="targetPoint" />
          </mxGeometry>
        </mxCell>
        <mxCell id="tjhsjT6ZtuWOGcHWminc-90" value="" style="endArrow=none;html=1;rounded=0;dashed=1;strokeWidth=8;strokeColor=#FF0000;" parent="1" edge="1">
          <mxGeometry width="50" height="50" relative="1" as="geometry">
            <mxPoint x="-280" y="3130" as="sourcePoint" />
            <mxPoint x="-300" y="-430" as="targetPoint" />
          </mxGeometry>
        </mxCell>
      </root>
    </mxGraphModel>
  </diagram>
</mxfile>
